<svg width="48" height="48" viewBox="0 0 48 48" fill="none" xmlns="http://www.w3.org/2000/svg">
<path d="M0 34.0352L48.0006 34.0001" stroke="#FF9700" stroke-width="0.3" stroke-miterlimit="10"/>
<path d="M4.28281 32L9.24181 18.263H11.4838L16.4333 32H14.3813L13.0893 28.3995H7.66481L6.34431 32H4.28281ZM8.14931 26.5565H12.5668L10.3723 20.258L8.14931 26.5565ZM32.5602 32L37.5192 18.263H39.7612L44.7107 32H42.6587L41.3667 28.3995H35.9422L34.6217 32H32.5602ZM36.4267 26.5565H40.8442L38.6497 20.258L36.4267 26.5565Z" fill="black"/>
<path d="M31.6283 16.094L26.0953 25.312V32H22.8833V25.301L17.3613 16.094H20.8373L24.5003 22.54L28.1193 16.094H31.6283Z" fill="#FF9700"/>
</svg>
